<?xml version="1.0" encoding="utf-8"?>
<!-- Svg Vector Icons : http://www.onlinewebfonts.com/icon -->
<!DOCTYPE svg PUBLIC "-//W3C//DTD SVG 1.1//EN" "http://www.w3.org/Graphics/SVG/1.1/DTD/svg11.dtd">
<svg version="1.1" xmlns="http://www.w3.org/2000/svg" xmlns:xlink="http://www.w3.org/1999/xlink" x="0px" y="0px" viewBox="0 0 1000 1000" enable-background="new 0 0 1000 1000" xml:space="preserve">
<metadata> Svg Vector Icons : http://www.onlinewebfonts.com/icon </metadata>
<g><path fill="#FF9C0F" d="M963.8,969.7H36.2c-14.5,0-26.2-11.7-26.2-26.2V230.6c0-14.5,11.7-26.2,26.2-26.2s26.2,11.7,26.2,26.2v686.7h901.4c14.5,0,26.2,11.7,26.2,26.2C990,957.9,978.3,969.7,963.8,969.7z"/><path fill="#FF9C0F" d="M36.2,697.3c-12.5,0-23.5-8.9-25.8-21.6c-2.5-14.2,7-27.8,21.2-30.4l278.5-49.5l168.9-224.9c8.7-11.5,25-13.9,36.6-5.3l191.1,141.8L940.4,44.7c6.5-12.9,22.3-18.1,35.2-11.6c12.9,6.5,18.1,22.3,11.6,35.2L739.5,558.8c-3.5,6.9-9.8,11.9-17.4,13.7c-7.5,1.8-15.4,0.1-21.6-4.5L505.3,423.2L345.8,635.5c-4,5.3-9.8,8.9-16.4,10.1L40.8,696.9C39.2,697.2,37.7,697.3,36.2,697.3z"/></g>
</svg>