<?xml version="1.0" encoding="utf-8"?>
<!-- Svg Vector Icons : http://www.onlinewebfonts.com/icon -->
<!DOCTYPE svg PUBLIC "-//W3C//DTD SVG 1.1//EN" "http://www.w3.org/Graphics/SVG/1.1/DTD/svg11.dtd">
<svg version="1.1" xmlns="http://www.w3.org/2000/svg" xmlns:xlink="http://www.w3.org/1999/xlink" x="0px" y="0px" viewBox="0 0 1000 1000" enable-background="new 0 0 1000 1000" xml:space="preserve">
<metadata> Svg Vector Icons : http://www.onlinewebfonts.com/icon </metadata>
<g><g transform="translate(0.000000,512.000000) scale(0.100000,-0.100000)"><path fill="#222" d="M4524.8,5003.7c-1151.7-118.8-2188.4-609.4-2997.1-1418.1C751.6,2809.5,284,1857.1,123,722.6c-30.7-222.3-30.7-960.1,0-1197.7c124.6-935.2,513.6-1839.7,1092.3-2529.5c795.3-950.5,1868.4-1548.4,3117.8-1736.2c320-47.9,1002.2-47.9,1322.3,0c1078.9,162.9,1991.1,607.4,2748,1343.3c417.8,406.3,724.4,822.1,977.3,1333.7c582.5,1169,678.4,2481.6,270.2,3715.7c-245.3,743.5-634.3,1377.8-1190,1933.6C7702,4344.4,6774.5,4808.2,5684.1,4976.8C5442.7,5013.2,4770.1,5030.5,4524.8,5003.7z M4505.6,4407.7c-262.5-551.9-505.9-1209.2-676.5-1835.8l-76.7-277.9l-854.7-5.7c-469.5-1.9-854.7,0-854.7,5.7c0,28.7,149.5,300.9,268.3,490.6c419.7,666.9,1032.9,1295.4,1694,1736.2c176.3,118.8,199.3,126.5,354.5,149.5c90.1,13.4,191.6,24.9,226.1,26.8l61.3,1.9L4505.6,4407.7z M5607.5,4672.1c203.1-28.7,251-53.7,594.1-304.7c676.5-498.2,1278.2-1182.4,1653.8-1887.6l105.4-195.5l-862.3,3.8l-864.2,5.7l-84.3,306.6c-184,670.7-458,1395.1-733.9,1945.1C5325.8,4723.9,5310.5,4714.3,5607.5,4672.1z M5185.9,4311.9c197.4-410.1,362.2-814.4,498.2-1222.6c88.2-264.4,230-749.3,230-789.5c0-7.7-413.9-15.3-919.8-15.3c-584.5,0-919.8,7.7-919.8,19.2c0,46,218.5,764.6,302.8,996.5c197.4,544.2,569.2,1360.6,617.1,1360.6C5005.8,4660.6,5092,4503.5,5185.9,4311.9z M3164.2,4256.3C2614.2,3763.8,2125.5,3141,1820.9,2545l-132.2-260.6h-367.9c-203.1,0-369.8,7.7-369.8,15.3c0,7.7,53.7,101.6,116.9,205.1c486.7,791.4,1205.4,1425.7,2046.6,1803.3c101.6,46,187.8,84.3,193.5,84.3C3313.7,4392.4,3248.5,4331,3164.2,4256.3z M7058.1,4219.9c266.4-134.1,596-346.9,820.2-527c279.8-222.3,645.8-611.3,866.2-919.8c97.7-136.1,293.2-454.2,293.2-477.2c0-5.8-166.7-11.5-369.8-11.5H8298l-74.7,157.1c-304.7,628.5-814.4,1291.6-1398.9,1814.7c-136.1,120.7-145.6,134.1-86.2,113.1C6774.5,4357.9,6918.3,4288.9,7058.1,4219.9z M9227.4,1905c109.2-214.6,258.7-747.4,320-1138.3c47.9-302.8,47.9-992.7,0-1295.4c-59.4-379.4-201.2-893-314.3-1132.6l-32.6-69l-4200.6-3.8c-3248.2-3.8-4204.4,1.9-4217.8,19.2c-28.7,36.4-151.4,373.7-212.7,590.2C444.9-684,406.6-394.6,406.6,119c0,513.6,38.3,802.9,162.9,1243.7c61.3,218.5,184,553.8,212.7,590.2c15.3,19.2,931.3,24.9,4214,24.9H9191L9227.4,1905z M1807.4-2299.4c283.6-550,615.1-994.6,1119.1-1496.6c187.8-185.9,335.4-339.2,329.6-339.2c-34.5,0-534.6,258.7-686,354.5c-613.2,385.2-1140.2,917.9-1506.2,1519.6c-63.2,101.6-113.1,191.6-113.1,199.3c0,7.7,162.9,15.3,362.2,15.3h364.1L1807.4-2299.4z M3746.8-2232.4c63.2-262.5,197.4-672.6,329.6-1013.7c107.3-274.1,406.2-896.9,532.7-1113.4c70.9-120.7,86.2-115-235.7-72.8c-207,26.8-207,26.8-392.8,151.4c-609.4,410.1-1199.6,1004.1-1602.1,1611.6C2252-2479.6,2024-2084.8,2024-2058c0,5.8,377.5,11.5,839.3,11.5h839.4L3746.8-2232.4z M5971.6-2065.6c0-9.6-38.3-151.4-86.2-314.3c-145.6-502.1-341.1-1000.3-576.8-1462.1c-139.9-275.9-300.9-561.5-314.3-561.5c-17.2,0-316.2,551.9-421.6,776.1c-207,442.7-477.1,1192-546.1,1519.6l-13.4,61.3h979.2C5601.7-2046.5,5971.6-2054.1,5971.6-2065.6z M7866.8-2241.9c-377.5-733.9-1105.7-1531.1-1858.8-2039c-185.9-124.6-185.9-124.6-392.8-151.4c-321.9-42.2-306.6-47.9-237.6,72.8c111.1,187.8,362.2,697.5,469.5,954.3c128.4,300.9,331.5,906.4,394.8,1172.8l44.1,185.9h839.3h841.2L7866.8-2241.9z M9032-2073.3c-26.8-69-241.5-400.5-366-567.2c-164.8-220.4-557.6-628.5-768.4-799.1c-247.2-199.3-573-408.2-870-555.7c-153.3-76.7-283.6-139.9-293.2-139.9c-7.6,0,139.9,153.3,327.7,339.2c502.1,500.2,835.5,944.7,1119.1,1496.6l130.3,253h366C8986-2046.5,9039.6-2050.3,9032-2073.3z"/><path fill="#222" d="M1127.1,958.3c5.7-13.4,128.4-402.4,274-862.3l264.4-839.3h224.2h222.3l65.1,254.9c36.4,138,101.6,387.1,143.7,550l80.5,297l30.7-105.4c15.3-57.5,82.4-306.6,149.5-551.9l118.8-446.5l220.4,5.8l220.4,5.7l274,852.8c151.4,469.5,275.9,854.7,275.9,858.5c0,1.9-101.6,3.8-224.2,3.8h-226.1l-161-557.6c-155.2-530.8-162.9-555.7-184-494.4c-13.4,36.4-78.6,287.5-145.6,559.6l-122.7,492.5h-222.3H2183l-128.4-492.5c-70.9-272.1-138-525.1-149.5-561.5c-21.1-63.2-26.8-46-149.5,383.3c-70.9,247.2-143.7,500.2-161,561.5l-32.6,109.2h-220.4C1171.2,981.3,1121.4,975.6,1127.1,958.3z"/><path fill="#222" d="M3716.1,958.3c3.8-13.4,126.5-402.4,272.1-862.3l266.4-839.3h222.3h220.4L4841-197.2c78.6,298.9,149.5,534.7,155.2,521.3c11.5-21.1,285.5-1034.8,285.5-1057.8c0-5.7,101.6-7.7,224.2-5.7l224.2,5.7l274,852.8c149.5,469.5,274,854.7,274,858.5c0,1.9-101.6,3.8-224.2,3.8h-226.1L5665,421.7c-161-553.8-162.9-559.6-184-484.8c-11.5,42.2-76.7,295.1-143.7,561.5l-122.7,482.9h-222.3h-222.3l-141.8-546.1C4549.7,134.3,4480.7-111,4475-111c-5.7,0-69,203.1-139.9,450.3c-70.9,247.2-141.8,492.5-157.1,546.2l-28.7,95.8h-220.4C3758.2,981.3,3708.4,975.6,3716.1,958.3z"/><path fill="#222" d="M6303.1,956.4c5.8-15.3,128.4-402.4,274-862.3l264.5-837.4h222.3h222.3l143.7,544.2c78.6,299,147.6,534.7,155.2,523.2c5.7-13.4,74.7-258.7,151.4-546.2l138-523.2l222.3,5.8l220.4,5.7l274,852.8c151.4,467.6,274,854.7,274,858.5c0,1.9-101.6,1.9-224.2,0l-226.1-5.7l-161-553.8c-103.5-352.6-166.7-540.4-174.4-517.4c-7.7,21.1-72.8,272.1-145.6,557.7l-132.2,523.1h-220.4H7359l-141.8-546.1C7138.6,134.3,7069.6-111,7062-111c-5.8,0-78.6,243.4-162.9,542.3l-155.2,540.4l-226.1,5.7C6333.8,981.3,6295.5,977.5,6303.1,956.4z"/></g></g>
</svg>